<?xml version="1.0" encoding="utf-8"?>
<!-- Generator: Adobe Illustrator 17.0.0, SVG Export Plug-In . SVG Version: 6.00 Build 0)  -->
<!DOCTYPE svg PUBLIC "-//W3C//DTD SVG 1.1//EN" "http://www.w3.org/Graphics/SVG/1.1/DTD/svg11.dtd">
<svg version="1.1" id="Layer_1" xmlns="http://www.w3.org/2000/svg" xmlns:xlink="http://www.w3.org/1999/xlink" x="0px" y="0px"
	 viewBox="1441.5 0 434.329 612" enable-background="new 1441.5 0 434.329 612"
	 xml:space="preserve">
<path fill="#FFFFFF" d="M1720.397,306L1862.6,163.797c17.638-17.638,17.638-44.094,0-61.732c-17.638-17.638-44.094-17.638-61.732,0
	l-142.203,142.203l-142.203-142.203c-17.638-17.638-44.094-17.638-61.732,0s-17.638,44.094,0,61.732L1596.932,306l-142.203,142.203
	c-17.638,17.638-17.638,44.094,0,61.732c17.638,17.638,44.094,17.638,61.732,0l142.203-142.203l142.203,142.203
	c17.638,17.638,44.094,17.638,61.732,0s17.638-44.094,0-61.732L1720.397,306z"/>
</svg>
