<?xml version="1.0" encoding="utf-8"?>
<!-- Generator: Adobe Illustrator 17.0.0, SVG Export Plug-In . SVG Version: 6.00 Build 0)  -->
<!DOCTYPE svg PUBLIC "-//W3C//DTD SVG 1.1//EN" "http://www.w3.org/Graphics/SVG/1.1/DTD/svg11.dtd">
<svg version="1.1" id="Layer_1" xmlns="http://www.w3.org/2000/svg" xmlns:xlink="http://www.w3.org/1999/xlink" x="0px" y="0px"
	 viewBox="0 0 18.5 15" enable-background="new 0 0 18.5 15" xml:space="preserve">
<g>
	<path fill="#FFFFFF" d="M17.1,2.8H1.4C0.6,2.8,0,2.2,0,1.4S0.6,0,1.4,0h15.7c0.8,0,1.4,0.6,1.4,1.4S17.9,2.8,17.1,2.8z"/>
	<path fill="#FFFFFF" d="M17.1,8.9H1.4C0.6,8.9,0,8.3,0,7.5s0.6-1.4,1.4-1.4h15.7c0.8,0,1.4,0.6,1.4,1.4S17.9,8.9,17.1,8.9z"/>
	<path fill="#FFFFFF" d="M17.1,15H1.4C0.6,15,0,14.3,0,13.5s0.6-1.4,1.4-1.4h15.7c0.8,0,1.4,0.6,1.4,1.4S17.9,15,17.1,15z"/>
</g>
</svg>
