<?xml version="1.0" encoding="utf-8"?>
<!-- Generator: Adobe Illustrator 18.0.0, SVG Export Plug-In . SVG Version: 6.00 Build 0)  -->
<!DOCTYPE svg PUBLIC "-//W3C//DTD SVG 1.1//EN" "http://www.w3.org/Graphics/SVG/1.1/DTD/svg11.dtd">
<svg version="1.1" id="Layer_1" xmlns="http://www.w3.org/2000/svg" xmlns:xlink="http://www.w3.org/1999/xlink" x="0px" y="0px"
	 viewBox="0 0 16.9 16.8" enable-background="new 0 0 16.9 16.8" xml:space="preserve">
<g>
	<path fill="#FFFFFF" d="M10.5,10.5c-2.3,0-4.2-1.9-4.2-4.2s1.9-4.2,4.2-4.2c2.3,0,4.2,1.9,4.2,4.2S12.8,10.5,10.5,10.5 M10.5,0
		C7.1,0,4.3,2.8,4.3,6.3c0,1.2,0.3,2.4,1,3.4l-4.8,4.7c-0.5,0.5-0.5,1.4,0,2c0.3,0.3,0.6,0.4,1,0.4c0.3,0,0.7-0.1,1-0.4l4.7-4.8
		c1,0.6,2.1,1,3.4,1c3.5,0,6.3-2.8,6.3-6.3S14,0,10.5,0"/>
</g>
</svg>
